<svg width="30" height="30" viewBox="0 0 30 30" fill="none" xmlns="http://www.w3.org/2000/svg">
<path d="M15.17 2.81256C8.31566 2.71999 2.71996 8.31569 2.81253 15.17C2.90394 21.7436 8.25648 27.0962 14.8301 27.1876C21.6856 27.2813 27.2801 21.6856 27.1864 14.8313C27.0961 8.25651 21.7436 2.90397 15.17 2.81256ZM22.5774 21.9874C22.554 22.0126 22.5254 22.0324 22.4936 22.0454C22.4617 22.0583 22.4274 22.0641 22.3931 22.0623C22.3588 22.0605 22.3253 22.0512 22.2949 22.035C22.2646 22.0188 22.2382 21.9962 22.2176 21.9686C21.6935 21.2829 21.0517 20.6959 20.3221 20.2348C18.8303 19.2774 16.9401 18.7501 15 18.7501C13.06 18.7501 11.1698 19.2774 9.67796 20.2348C8.9484 20.6957 8.30657 21.2825 7.78246 21.968C7.76187 21.9956 7.73547 22.0182 7.70514 22.0344C7.67482 22.0506 7.6413 22.0599 7.60697 22.0617C7.57264 22.0635 7.53833 22.0577 7.50648 22.0448C7.47464 22.0318 7.44603 22.012 7.42269 21.9868C5.70336 20.1308 4.72943 17.7055 4.68753 15.1758C4.59203 9.47409 9.27074 4.70163 14.9748 4.68756C20.6789 4.6735 25.3125 9.30534 25.3125 15.0001C25.3145 17.5907 24.3375 20.0865 22.5774 21.9874Z" fill="#1E1E1E"/>
<path d="M15.0001 8.4375C13.8446 8.4375 12.7999 8.87051 12.0575 9.65742C11.3151 10.4443 10.9442 11.5324 11.028 12.7002C11.1979 15 12.9798 16.875 15.0001 16.875C17.0204 16.875 18.7987 15 18.9721 12.7008C19.0589 11.5441 18.6909 10.466 17.9362 9.66445C17.1909 8.87344 16.1479 8.4375 15.0001 8.4375Z" fill="#1E1E1E"/>
</svg>
