<svg width="24" height="25" viewBox="0 0 24 25" fill="none" xmlns="http://www.w3.org/2000/svg">
<path fill-rule="evenodd" clip-rule="evenodd" d="M20.9995 4.25C20.9995 4.05109 20.9205 3.86032 20.7798 3.71967C20.6392 3.57902 20.4484 3.5 20.2495 3.5H11.2495C11.0506 3.5 10.8598 3.57902 10.7192 3.71967C10.5785 3.86032 10.4995 4.05109 10.4995 4.25C10.4995 4.44891 10.5785 4.63968 10.7192 4.78033C10.8598 4.92098 11.0506 5 11.2495 5H18.439L3.21848 20.219C3.14875 20.2887 3.09344 20.3715 3.0557 20.4626C3.01796 20.5537 2.99854 20.6514 2.99854 20.75C2.99854 20.8486 3.01796 20.9463 3.0557 21.0374C3.09344 21.1285 3.14875 21.2113 3.21848 21.281C3.28821 21.3507 3.371 21.406 3.46211 21.4438C3.55322 21.4815 3.65087 21.5009 3.74948 21.5009C3.8481 21.5009 3.94575 21.4815 4.03686 21.4438C4.12797 21.406 4.21075 21.3507 4.28048 21.281L19.4995 6.0605V13.25C19.4995 13.4489 19.5785 13.6397 19.7192 13.7803C19.8598 13.921 20.0506 14 20.2495 14C20.4484 14 20.6392 13.921 20.7798 13.7803C20.9205 13.6397 20.9995 13.4489 20.9995 13.25V4.25Z" fill="#1E1E1E"/>
</svg>
