<svg width="30" height="30" viewBox="0 0 30 30" fill="none" xmlns="http://www.w3.org/2000/svg">
<path fill-rule="evenodd" clip-rule="evenodd" d="M3.36168 9.92418C3.71331 9.57255 4.19022 9.375 4.6875 9.375H25.3125C25.8098 9.375 26.2867 9.57254 26.6383 9.92418C26.99 10.2758 27.1875 10.7527 27.1875 11.25V23.9795C27.1875 26.2964 25.2307 28.125 22.9688 28.125H7.03125C4.74161 28.125 2.8125 26.1959 2.8125 23.9062V11.25C2.8125 10.7527 3.01004 10.2758 3.36168 9.92418ZM25.3125 11.25H4.6875L4.6875 23.9062C4.6875 25.1604 5.77714 26.25 7.03125 26.25H22.9688C24.2505 26.25 25.3125 25.2064 25.3125 23.9795V11.25Z" fill="#1E1E1E"/>
<path fill-rule="evenodd" clip-rule="evenodd" d="M15 3.75C13.7568 3.75 12.5645 4.24386 11.6854 5.12294C10.8064 6.00201 10.3125 7.1943 10.3125 8.4375V10.3125C10.3125 10.8303 9.89277 11.25 9.375 11.25C8.85723 11.25 8.4375 10.8303 8.4375 10.3125V8.4375C8.4375 6.69702 9.1289 5.02782 10.3596 3.79711C11.5903 2.5664 13.2595 1.875 15 1.875C16.7405 1.875 18.4097 2.5664 19.6404 3.79711C20.8711 5.02782 21.5625 6.69702 21.5625 8.4375V10.3125C21.5625 10.8303 21.1428 11.25 20.625 11.25C20.1072 11.25 19.6875 10.8303 19.6875 10.3125V8.4375C19.6875 7.1943 19.1936 6.00201 18.3146 5.12294C17.4355 4.24386 16.2432 3.75 15 3.75Z" fill="#1E1E1E"/>
</svg>
